<?xml version="1.0" encoding="utf-8"?>
<svg version="1.1" xmlns="http://www.w3.org/2000/svg" xmlns:xlink="http://www.w3.org/1999/xlink" x="0px" y="0px" viewBox="0 0 30 44" style="enable-background:new 0 0 30 44;" xml:space="preserve">
<g id="lab_pin">
	<path style="fill:#1A1A1A;stroke:#FFFFFF;stroke-width:2;" d="M15.6,2L15.6,2L15.6,2c0.1,0,0.1,0,0.2,0
		c0,0,0.1,0,0.1,0h0l0,0c0.1,0,0.1,0,0.3,0C23.2,2,29,7.8,29,14.8c0,3.1-1.1,6-3,8.2l0,0l0,0c-0.7,1-1.6,2.1-2.5,3.2
		c-0.2,0.2-0.3,0.4-0.5,0.6c-1.1,1.3-2.3,2.8-3.3,4.4c-2,3-3.7,6.5-4.2,10.8h-0.9c-0.5-4.3-2.2-7.8-4.2-10.8c-1.1-1.6-2.2-3-3.3-4.4
		c-0.2-0.2-0.3-0.4-0.5-0.6c-0.9-1.1-1.8-2.2-2.5-3.2l0,0l0,0c-1.8-2.2-3-5.1-3-8.2C1,7.8,6.8,2,13.9,2h0h0h0h0h0h0h0h0h0h0h0h0h0h0
		h0h0h0h0h0h0h0h0h0h0h0h0h0h0h0h0h0h0h0h0h0h0h0h0h0h0h0h0h0h0h0h0h0h0h0h0h0h0h0h0h0h0h0h0h0h0h0h0h0h0h0h0h0h0h0h0h0h0h0h0h0h0h0
		h0h0h0h0h0h0h0h0h0h0h0h0h0h0h0h0h0h0h0h0h0h0h0h0h0h0h0h0h0h0h0h0h0h0h0h0h0h0h0h0h0h0h0h0h0h0h0h0h0h0h0h0h0h0h0h0h0h0h0h0h0h0h0
		h0h0h0h0h0h0h0h0h0h0h0h0h0h0h0h0h0h0h0h0h0h0h0h0h0h0h0h0h0h0h0h0h0h0h0h0h0h0h0h0h0h0h0h0h0h0h0h0h0h0h0h0h0h0h0h0h0h0h0h0h0h0h0
		h0h0h0h0h0h0h0h0h0h0h0h0h0h0h0h0h0h0h0h0h0h0h0h0h0h0h0h0h0h0h0h0h0h0h0h0h0h0h0h0h0h0h0h0h0h0h0h0h0h0h0h0h0h0h0h0h0h0h0h0h0h0h0
		h0h0h0h0h0h0h0h0h0h0h0h0h0h0h0h0h0h0h0h0h0h0h0h0h0h0h0h0h0h0h0h0h0h0h0h0h0h0h0h0h0h0h0h0h0h0h0h0h0h0h0h0h0h0h0h0h0h0h0h0h0h0h0
		h0h0h0h0h0h0h0h0h0h0h0h0h0h0h0h0h0h0h0h0h0h0h0h0h0h0h0h0h0h0h0h0h0h0h0h0h0h0h0h0h0h0h0h0h0h0h0h0h0h0h0h0h0h0h0h0h0h0h0h0h0h0h0
		h0h0h0h0h0h0h0h0h0h0h0h0h0h0h0h0h0h0h0h0h0h0h0h0h0h0h0h0h0h0h0h0h0h0h0h0h0h0h0h0h0h0h0h0h0h0h0h0h0h0h0h0h0h0h0h0h0h0h0h0h0h0h0
		h0h0h0h0h0h0h0h0h0h0h0h0h0h0h0h0h0h0h0h0h0h0h0h0h0h0h0h0h0h0h0h0h0h0h0h0h0h0h0h0h0h0h0h0h0h0h0h0h0h0h0h0h0h0h0h0h0
		C15.5,2,15.6,2,15.6,2C15.6,2,15.6,2,15.6,2z"/>
	<path style="fill:#FFFFFF;" d="M10.9,22l5.8-8.2V22H20v-8.2h-3.4L20,9h-3.9L7,22H10.9z"/>
</g>
</svg>
